# xmcd
#
# Track frame offsets:
#	150
#	12157
#	24773
#	35270
#	48317
#	62268
#	77109
#	88136
#	97341
#	117765
#	128085
#	143388
#
# Disc length: 2070 seconds
# Revision: 0
# Processed by: cddbd v1.5.2PL0 Copyright (c) Steve Scherf et al.
# Submitted via: dBpowerAMP V12.0
#
DISCID=8908140c
DTITLE=Preston Walden - Crossin' The Line
DYEAR=2009
DGENRE=Bluegrass
TTITLE0=Crossin' The Line
TTITLE1=I Close My Eyes
TTITLE2=County Line Breakdown
TTITLE3=The Dog Song
TTITLE4=Red Wagon Blues
TTITLE5=Whatever Happened To The Good Ole Days?
TTITLE6=The Bells Of St. Mary's
TTITLE7=The Right Time
TTITLE8=Grandpa And The Rat
TTITLE9=Chorditude
TTITLE10=A Soldier's Song
TTITLE11=Black Mountain Rag
EXTD=
EXTT0=
EXTT1=
EXTT2=
EXTT3=
EXTT4=
EXTT5=
EXTT6=
EXTT7=
EXTT8=
EXTT9=
EXTT10=
EXTT11=
PLAYORDER=
